Coordinates
version=1
nRows=7
nColumns=63
inDegrees=yes

Units are S.I. units (second, meters, Newtons, ...)
If the header above contains a line with 'inDegrees', this indicates whether rotational values are in degrees (yes) or radians (no).

endheader
time	pelvis_tilt	pelvis_list	pelvis_rotation	pelvis_tx	pelvis_ty	pelvis_tz	hip_flexion_r	hip_adduction_r	hip_rotation_r	knee_angle_r	knee_angle_r_beta	ankle_angle_r	subtalar_angle_r	mtp_angle_r	hip_flexion_l	hip_adduction_l	hip_rotation_l	knee_angle_l	knee_angle_l_beta	ankle_angle_l	subtalar_angle_l	mtp_angle_l	L5_S1_Flex_Ext	L5_S1_Lat_Bending	L5_S1_axial_rotation	L4_L5_Flex_Ext	L4_L5_Lat_Bending	L4_L5_axial_rotation	L3_L4_Flex_Ext	L3_L4_Lat_Bending	L3_L4_axial_rotation	L2_L3_Flex_Ext	L2_L3_Lat_Bending	L2_L3_axial_rotation	L1_L2_Flex_Ext	L1_L2_Lat_Bending	L1_L2_axial_rotation	L1_T12_Flex_Ext	L1_T12_Lat_Bending	L1_T12_axial_rotation	Abs_r3	Abs_r2	Abs_r1	Abs_t1	Abs_t2	neck_flexion	neck_bending	neck_rotation	arm_flex_r	arm_add_r	arm_rot_r	elbow_flex_r	pro_sup_r	wrist_flex_r	wrist_dev_r	arm_flex_l	arm_add_l	arm_rot_l	elbow_flex_l	pro_sup_l	wrist_flex_l	wrist_dev_l
      5.84745763	      1.49041807	     -6.83953218	     88.02020974	      0.12945892	      0.96623560	      0.49556601	     13.58452597	     -1.12095735	    -18.09109588	     20.51026207	      0.35797160	     34.81930431	     17.79612860	      0.00000000	     13.25515328	     -4.71133876	     -6.37402306	     24.35118264	      0.42500831	     33.72873907	    -10.62870512	      0.00000000	     -0.11077504	      0.33540762	      0.84443316	     -0.20572032	      0.44609214	      0.89721024	     -0.18199231	      0.81551010	      0.89721024	     -0.12660479	      0.81551010	      0.73887902	     -0.10286570	      0.68396323	      0.68610195	     -0.06329686	      0.51954641	      0.63332487	     -0.79125502	      3.79419812	      4.69648392	      0.00000000	      0.00000000	     12.76413515	     -3.08071842	      8.31564314	    217.85078751	   -131.79653788	    186.74963527	     49.18054829	     71.28034457	     -2.90918869	     23.90780022	     34.63195603	    -49.80051521	     -8.54226987	     54.10596547	     64.57397649	    -19.42845898	     10.20200037
      5.86440678	      0.90868610	     -7.43263905	     87.80724119	      0.12968364	      0.96742341	      0.49824254	     13.76862390	     -1.40227587	    -17.60431401	     19.21372804	      0.33534282	     33.69084438	     17.72985067	      0.00000000	     13.56886484	     -4.27976090	     -7.56534641	     23.36701995	      0.40783143	     33.22383120	     -9.42986003	      0.00000000	     -0.07724648	      0.20470760	      1.09390528	     -0.14345444	      0.27226111	      1.16227436	     -0.12690824	      0.49772607	      1.16227436	     -0.08828500	      0.49772607	      0.95716712	     -0.07173108	      0.41743975	      0.88879804	     -0.04413864	      0.31709208	      0.82042896	     -0.55176389	      2.31569336	      6.08397298	      0.00000000	      0.00000000	     14.11968885	     -1.80294633	      5.29157932	    216.79962199	   -129.00132344	    182.50340129	     51.58990743	     62.77113355	     -2.47537865	     23.83585147	     40.06084369	    -50.18959283	     -7.59712971	     54.22953609	     69.89239151	    -20.11097256	     12.61585647
      5.88135593	      0.35142022	     -8.07798595	     87.96559008	      0.12926663	      0.96831662	      0.50071584	     13.87703503	     -1.73234626	    -17.37833000	     17.84803416	      0.31150696	     32.37911690	     17.56587465	      0.00000000	     13.99936966	     -3.77070803	     -8.41426491	     22.39434482	      0.39085505	     32.81388510	     -8.23790577	      0.00000000	     -0.03773830	      0.08034392	      1.24263042	     -0.07008380	      0.10685742	      1.32029483	     -0.06200026	      0.19534821	      1.32029483	     -0.04313111	      0.19534821	      1.08730162	     -0.03504379	      0.16383733	      1.00963722	     -0.02156367	      0.12445274	      0.93197282	     -0.26956092	      0.90886652	      6.91113763	      0.00000000	      0.00000000	     15.27880213	     -0.27048856	      2.62825300	    215.83721656	   -126.85575471	    177.06198479	     53.45658528	     53.47155265	     -1.54944009	     23.24947510	     45.62655454	    -50.70678518	     -6.10865498	     53.80154958	     70.93933894	    -19.20692323	     12.20454238
      5.89830508	     -0.01290802	     -8.69091971	     88.33500868	      0.12793555	      0.96906319	      0.50323000	     13.82635292	     -1.92362501	    -17.16683627	     16.35605477	      0.28546701	     30.85892919	     17.20739013	      0.00000000	     14.43666152	     -3.35937191	     -9.04379145	     21.44925299	      0.37436009	     32.56797198	     -6.99809166	      0.00000000	     -0.00443459	     -0.00886088	      1.33234452	     -0.00823548	     -0.01178497	      1.41561605	     -0.00728559	     -0.02154434	      1.41561605	     -0.00506829	     -0.02154434	      1.16580145	     -0.00411796	     -0.01806910	      1.08252992	     -0.00253392	     -0.01372550	      0.99925839	     -0.03167584	     -0.10023601	      7.41010050	      0.00000000	      0.00000000	     16.00307259	      1.08126942	      0.38334098	    215.21266317	   -124.97072863	    171.20296982	     54.99568531	     47.20746031	      0.14956580	     21.97413931	     50.98162486	    -51.16169085	     -4.40530412	     52.78708308	     68.51282070	    -15.68323698	      8.64752540
      5.91525424	     -0.40127671	     -9.22669538	     88.73146234	      0.12645207	      0.96975885	      0.50572249	     13.66541212	     -2.14918092	    -16.79958260	     14.86551878	      0.25945225	     29.13636652	     16.54456812	      0.00000000	     14.72385773	     -2.92274777	     -9.92628951	     20.40386451	      0.35611462	     32.34147351	     -5.33327914	      0.00000000	      0.01267576	     -0.09503805	      1.39163426	      0.02354015	     -0.12640061	      1.47861141	      0.02082500	     -0.23107552	      1.47861141	      0.01448712	     -0.23107552	      1.21767998	      0.01177071	     -0.19380160	      1.13070284	      0.00724293	     -0.14721394	      1.04372570	      0.09054167	     -1.07508946	      7.73985228	      0.00000000	      0.00000000	     16.30011905	      2.23321363	     -1.52105209	    214.61343874	   -123.53665748	    164.25263567	     56.97585418	     47.77010421	      2.14405880	     21.47857179	     56.21710376	    -52.43827254	     -0.37810279	     51.70239502	     61.48469027	    -11.71020578	      2.83530339
      5.93220339	     -0.58968866	     -9.75377929	     89.40073729	      0.12387279	      0.97021792	      0.50822742	     13.45203441	     -2.27696055	    -16.49538445	     13.37320985	      0.23340654	     27.41882028	     15.57892553	      0.00000000	     15.06639470	     -2.48918950	    -10.11391324	     19.44449091	      0.33937039	     32.04719576	     -4.15764215	      0.00000000	      0.02750082	     -0.13383810	      1.29202400	      0.05107177	     -0.17800468	      1.37277550	      0.04518109	     -0.32541397	      1.37277550	      0.03143068	     -0.32541397	      1.13052100	      0.02553726	     -0.27292266	      1.04976950	      0.01571397	     -0.20731522	      0.96901800	      0.19643559	     -1.51400341	      7.18584990	      0.00000000	      0.00000000	     16.20878700	      2.77490048	     -2.14526311	    215.90392711	   -122.71187110	    157.96576935	     59.09051699	     55.98740933	      5.22125594	     22.08213297	     59.83314128	    -54.68373761	      3.35580309	     51.66352545	     52.77053448	     -6.91773378	     -2.54633047
      5.94915254	     -0.58791843	    -10.28263377	     90.27758897	      0.12052785	      0.97035126	      0.51063256	     13.27755730	     -2.29018885	    -16.08189898	     11.98079994	      0.20910441	     25.89365854	     14.14864237	      0.00000000	     15.49407284	     -2.14372304	     -9.91782274	     18.69771985	      0.32633677	     31.74675147	     -3.06330834	      0.00000000	      0.03935987	     -0.13614298	      1.12870253	      0.07309522	     -0.18107016	      1.19924644	      0.06466433	     -0.33101803	      1.19924644	      0.04498440	     -0.33101803	      0.98761472	      0.03654958	     -0.27762276	      0.91707081	      0.02249023	     -0.21088547	      0.84652690	      0.28114362	     -1.54007658	      6.27750488	      0.00000000	      0.00000000	     16.01677497	      2.61252486	     -2.28306557	    217.48089275	   -121.51228436	    152.90823742	     62.30425780	     67.79054103	      6.81648415	     22.96186572	     62.34041505	    -57.38250860	      6.64437556	     53.12058021	     44.65661817	     -4.17790466	     -5.77674412
